<svg xmlns="http://www.w3.org/2000/svg" xmlns:xlink="http://www.w3.org/1999/xlink"><defs>
        <path d="M16.693,8.5 C16.287,7.58 15.521,6.85 14.633,6.4 C13.063,5.605 11.111,5.61 9.547,6.42 C8.459,6.978 7.552,7.978 7.294,9.195 C7.081,10.091 7.272,11.055 7.747,11.835 C8.454,13.01 9.732,13.76 11.06,14 C12.023,14.196 13.018,14.08 13.953,13.81 C14.513,14.028 15.013,14.38 15.558,14.64 C15.418,14.17 15.268,13.703 15.108,13.24 C15.718,12.806 16.271,12.266 16.604,11.588 C17.1,10.643 17.13,9.473 16.694,8.501 L16.693,8.5 Z M4.554,1.76 C3.379,2.183 2.314,2.97 1.657,4.04 C1.061,5.007 0.837,6.212 1.125,7.318 C1.413,8.545 2.265,9.573 3.299,10.26 C3.104,10.826 2.911,11.393 2.729,11.963 C3.385,11.623 4.032,11.268 4.685,10.923 C5.471,11.173 6.298,11.295 7.123,11.268 C6.908,10.638 6.857,9.958 6.955,9.3 C7.112,8.386 7.605,7.55 8.289,6.93 C9.439,5.854 11.069,5.4 12.619,5.51 C12.329,4.087 11.329,2.884 10.077,2.19 C8.415,1.254 6.343,1.113 4.554,1.76 Z M11.232,8.85 C11.094,9.284 10.462,9.415 10.156,9.084 C9.819,8.778 9.95,8.138 10.392,8.002 C10.882,7.795 11.447,8.36 11.232,8.85 L11.232,8.85 Z M14.429,8.91 C14.259,9.302 13.674,9.392 13.385,9.09 C13.245,8.963 13.211,8.772 13.155,8.603 C13.229,8.298 13.433,7.981 13.779,7.967 C14.257,7.902 14.677,8.482 14.429,8.91 L14.429,8.91 Z M9.66,4.608 C9.665,5.248 8.81,5.648 8.33,5.214 C7.832,4.857 7.973,3.989 8.558,3.809 C9.081,3.602 9.7,4.043 9.658,4.607 L9.66,4.608 Z M5.62,4.77 C5.506,5.327 4.76,5.596 4.323,5.222 C3.817,4.866 3.959,3.982 4.553,3.802 C5.135,3.578 5.796,4.169 5.621,4.77 L5.62,4.77 Z" id="path-1"/>
    </defs><symbol id="icon-all" viewBox="0 0 24 24">
    <path d="M5 13h14v-2H5v2zm-2 4h14v-2H3v2zM7 7v2h14V7H7z"/>
    <path d="M0 0h24v24H0z" fill="none"/>
</symbol><symbol id="icon-hot" viewBox="0 0 24 24">
    <path d="M13.5.67s.74 2.65.74 4.8c0 2.06-1.35 3.73-3.41 3.73-2.07 0-3.63-1.67-3.63-3.73l.03-.36C5.21 7.51 4 10.62 4 14c0 4.42 3.58 8 8 8s8-3.58 8-8C20 8.61 17.41 3.8 13.5.67zM11.71 19c-1.78 0-3.22-1.4-3.22-3.14 0-1.62 1.05-2.76 2.81-3.12 1.77-.36 3.6-1.21 4.62-2.58.39 1.29.59 2.65.59 4.04 0 2.65-2.15 4.8-4.8 4.8z"/>
    <path d="M0 0h24v24H0z" fill="none"/>
</symbol><symbol id="icon-pin" viewBox="0 0 50 62.5">
  <g><polygon fill="#fff" points="595.758,1224.669 593.379,1252.229 598.776,1252.229 596.713,1224.669  "/>
    <g><circle fill="#fff" cx="596.249" cy="1218.294" r="4.404"/>
      <g>
        <g><path fill="#fff" d="M590.851,1226.847c-2.808-1.835-4.484-4.928-4.484-8.274c0-3.425,1.738-6.558,4.649-8.38l-1.061-1.695      c-3.5,2.19-5.589,5.956-5.589,10.075c0,4.023,2.015,7.743,5.39,9.949L590.851,1226.847z"/></g>
        <g><path fill="#fff" d="M601.141,1209.987c3.076,1.757,4.986,5.046,4.986,8.585c0,3.477-1.859,6.737-4.854,8.51l1.019,1.721      c3.6-2.131,5.836-6.051,5.836-10.23c0-4.255-2.297-8.21-5.994-10.322L601.141,1209.987z"/></g>
        <g><path fill="#fff" d="M588.683,1231.004c-4.375-2.668-6.986-7.315-6.986-12.432c0-4.604,2.109-8.838,5.788-11.617      l-1.205-1.596c-4.184,3.16-6.583,7.977-6.583,13.213c0,5.819,2.97,11.105,7.944,14.14L588.683,1231.004z"/></g>
        <g><path fill="#fff" d="M604.768,1206.774c3.777,2.734,6.032,7.146,6.032,11.798c0,5.12-2.739,9.922-7.148,12.531l1.019,1.721      c5.015-2.967,8.13-8.429,8.13-14.252c0-5.292-2.564-10.309-6.859-13.418L604.768,1206.774z"/></g>
      </g>
    </g>
  </g>
  <g><path fill="#fff" d="M38.132,7.263c-1.699-1.711-3.887-2.941-6.566-4.17c-2.92-0.986-5.359-0.997-6.583,0.217   c-0.49,0.486-0.738,1.217-0.74,2.192c0.244,0.244,0.482,0.977,0.965,2.44l-7.114,10.945c-2.681-0.254-4.877,0.467-6.592,2.168   c-2.204,2.185-1.726,5.112,1.672,8.539c1.214,1.225,2.674,2.203,4.378,3.429l-6.887,14.603l8.831-13.619   c1.947,0.983,4.138,1.727,6.09,1.731c2.922,0.501,4.875,0.019,6.1-1.194c1.223-1.213,1.715-2.676,0.992-4.382   c0.006-1.465-0.965-2.933-1.934-4.4l5.412-12.654c1.709-0.238,2.441-0.478,2.932-0.966C40.312,10.931,40.075,9.222,38.132,7.263z    M29.771,26.246c0,0,0,0-0.248,0.245c-0.488,0.484-1.709,0.725-3.414,0.475c-0.731-0.248-1.461-0.495-2.192-0.74l8.344-14.11   l2.924,0.989L29.771,26.246z M37.597,9.326c-0.49,0.904-2.934,0.522-5.463-0.852c-2.525-1.373-4.174-3.221-3.684-4.126   c0.494-0.904,2.939-0.521,5.467,0.855C36.442,6.576,38.089,8.422,37.597,9.326z"/></g>
</symbol><symbol id="icon-reply" viewBox="0 0 24 24">
    <path d="M10 9V5l-7 7 7 7v-4.1c5 0 8.5 1.6 11 5.1-1-5-4-10-11-11z"/>
    <path d="M0 0h24v24H0z" fill="none"/>
</symbol><symbol id="icon-search" viewBox="0 0 24 24">
    <path d="M15.5 14h-.79l-.28-.27C15.41 12.59 16 11.11 16 9.5 16 5.91 13.09 3 9.5 3S3 5.91 3 9.5 5.91 16 9.5 16c1.61 0 3.09-.59 4.23-1.57l.27.28v.79l5 4.99L20.49 19l-4.99-5zm-6 0C7.01 14 5 11.99 5 9.5S7.01 5 9.5 5 14 7.01 14 9.5 11.99 14 9.5 14z"/>
    <path d="M0 0h24v24H0z" fill="none"/>
</symbol><symbol id="icon-star" viewBox="0 0 24 24">
    <path d="M12 17.27L18.18 21l-1.64-7.03L22 9.24l-7.19-.61L12 2 9.19 8.63 2 9.24l5.46 4.73L5.82 21z"/>
    <path d="M0 0h24v24H0z" fill="none"/>
</symbol><symbol id="icon-wechat" viewBox="0 0 18 16">

    
    <g id="Page-1" stroke="none" stroke-width="1" fill="none" fill-rule="evenodd">
        <g id="Shape">
            <use stroke="#9B9B9B" stroke-width="0.8" xlink:href="#path-1"/>
            <use stroke="none" xlink:href="#path-1"/>
        </g>
    </g>
</symbol><symbol id="icon-weibo" viewBox="0 0 18 14">
    <!-- Generator: Sketch 3.6.1 (26313) - http://www.bohemiancoding.com/sketch -->
    <title>Shape</title>
    <desc>Created with Sketch.</desc>
    
    <g id="Page-1" stroke="none" stroke-width="1" fill="none" fill-rule="evenodd">
        <path d="M7.72,12.532 C5.073,12.792 2.786,11.596 2.614,9.857 C2.442,8.12 4.45,6.497 7.1,6.235 C9.748,5.973 12.034,7.17 12.206,8.909 C12.378,10.647 10.37,12.269 7.721,12.531 L7.72,12.532 Z M7.023,10.466 C6.767,10.876 6.219,11.054 5.805,10.866 C5.398,10.68 5.278,10.206 5.535,9.806 C5.787,9.41 6.318,9.233 6.728,9.406 C7.143,9.581 7.275,10.053 7.023,10.466 L7.023,10.466 Z M7.986,7.573 C6.726,7.245 5.301,7.873 4.753,8.983 C4.196,10.117 4.735,11.373 6.008,11.785 C7.328,12.211 8.882,11.559 9.423,10.335 C9.956,9.141 9.29,7.91 7.986,7.573 L7.986,7.573 Z M12.756,6.349 C13.012,5.706 13.038,5.152 12.761,4.756 C12.241,4.014 10.821,4.054 9.191,4.736 C9.191,4.736 8.681,4.96 8.811,4.554 C9.061,3.749 9.024,3.074 8.634,2.684 C7.75,1.8 5.4,2.718 3.384,4.734 C1.876,6.242 1,7.842 1,9.224 C1,11.871 4.393,13.479 7.713,13.479 C12.063,13.479 14.959,10.951 14.959,8.944 C14.959,7.731 13.936,7.044 13.019,6.758 C12.793,6.691 12.639,6.645 12.756,6.349 Z M14.294,3.373 C13.784,2.805 13.028,2.59 12.33,2.738 C12.046,2.798 11.865,3.078 11.926,3.363 C11.986,3.647 12.266,3.83 12.551,3.768 C12.893,3.696 13.261,3.801 13.513,4.078 C13.763,4.356 13.83,4.734 13.723,5.065 C13.633,5.342 13.785,5.64 14.063,5.73 C14.34,5.818 14.637,5.667 14.726,5.39 C14.946,4.712 14.809,3.94 14.296,3.372 L14.294,3.373 Z M15.908,1.916 C14.856,0.751 13.306,0.306 11.875,0.612 C11.545,0.682 11.333,1.008 11.405,1.339 C11.475,1.669 11.8,1.881 12.131,1.809 C13.149,1.594 14.251,1.909 14.997,2.737 C15.743,3.565 15.945,4.694 15.627,5.683 C15.521,6.006 15.697,6.351 16.02,6.455 C16.342,6.559 16.687,6.383 16.792,6.061 L16.792,6.06 C17.24,4.668 16.957,3.08 15.906,1.917 L15.908,1.916 Z" id="Shape" stroke="#9B9B9B" stroke-width="0.8"/>
    </g>
</symbol></svg>